<svg width="32" height="38" viewBox="0 0 32 38" fill="none" xmlns="http://www.w3.org/2000/svg">
<path fill-rule="evenodd" clip-rule="evenodd" d="M31.8009 27.4802C30.9548 29.3799 30.5498 30.2278 29.4605 31.9066C27.9401 34.2508 25.798 37.1697 23.1436 37.1942C20.7841 37.2164 20.1785 35.6391 16.9772 35.6569C13.7759 35.6745 13.1073 37.2219 10.7478 37.2001C8.09307 37.1754 6.063 34.539 4.54273 32.1957C0.29191 25.6415 -0.152173 17.9497 2.46896 13.8608C4.33235 10.9546 7.27078 9.25349 10.0348 9.25349C12.8484 9.25349 14.6173 10.8166 16.9436 10.8166C19.2001 10.8166 20.5759 9.25098 23.8285 9.25098C26.2874 9.25098 28.8928 10.6067 30.7494 12.9525C24.6671 16.3285 25.6548 25.1278 31.8009 27.4802Z" fill="white"/>
<path fill-rule="evenodd" clip-rule="evenodd" d="M21.3614 6.63346C22.5425 5.09715 23.4407 2.92645 23.115 0.708984C21.1849 0.843605 18.9259 2.08771 17.6071 3.7097C16.4102 5.18248 15.4223 7.36642 15.8071 9.48866C17.9146 9.55471 20.0951 8.27976 21.3614 6.63346Z" fill="white"/>
</svg>
